2014025_C4_04_grf
version=1
nRows=18
nColumns=19
inDegrees=no
endheader
time	ground_force_1_vx	ground_force_1_vy	ground_force_1_vz	ground_force_1_px	ground_force_1_py	ground_force_1_pz	ground_force_1_mx	ground_force_1_my	ground_force_1_mz	ground_force_2_vx	ground_force_2_vy	ground_force_2_vz	ground_force_2_px	ground_force_2_py	ground_force_2_pz	ground_force_2_mx	ground_force_2_my	ground_force_2_mz
      0.38000000	     -4.52826545	    455.57275414	    -51.40415579	      0.21801761	     -0.00200000	     -0.18835885	      0.00000000	      0.44537574	      0.00000000	      0.00000000	      0.00000000	      0.00000000	      0.00000000	      0.00000000	      0.00000000	      0.00000000	      0.00000000	      0.00000000
      0.38100000	     -4.07483405	    457.34370127	    -51.55089051	      0.21814610	     -0.00200000	     -0.18842454	      0.00000000	      0.47265289	      0.00000000	      0.00000000	      0.00000000	      0.00000000	      0.00000000	      0.00000000	      0.00000000	      0.00000000	      0.00000000	      0.00000000
      0.38200000	     -3.62397195	    459.17745680	    -51.69698596	      0.21827259	     -0.00200000	     -0.18849215	      0.00000000	      0.50062767	      0.00000000	      0.00000000	      0.00000000	      0.00000000	      0.00000000	      0.00000000	      0.00000000	      0.00000000	      0.00000000	      0.00000000
      0.38300000	     -3.17641778	    461.08935028	    -51.84162408	      0.21839695	     -0.00200000	     -0.18856225	      0.00000000	      0.52949923	      0.00000000	      0.00000000	      0.00000000	      0.00000000	      0.00000000	      0.00000000	      0.00000000	      0.00000000	      0.00000000	      0.00000000
      0.38400000	     -2.73160124	    463.06338161	    -51.98457688	      0.21851986	     -0.00200000	     -0.18863442	      0.00000000	      0.55911066	      0.00000000	      0.00000000	      0.00000000	      0.00000000	      0.00000000	      0.00000000	      0.00000000	      0.00000000	      0.00000000	      0.00000000
      0.38500000	     -2.29033374	    465.11471272	    -52.12478265	      0.21864127	     -0.00200000	     -0.18870932	      0.00000000	      0.58967741	      0.00000000	      0.00000000	      0.00000000	      0.00000000	      0.00000000	      0.00000000	      0.00000000	      0.00000000	      0.00000000	      0.00000000
      0.38600000	     -1.85200863	    467.22758561	    -52.26227492	      0.21876174	     -0.00200000	     -0.18878653	      0.00000000	      0.62103452	      0.00000000	      0.00000000	      0.00000000	      0.00000000	      0.00000000	      0.00000000	      0.00000000	      0.00000000	      0.00000000	      0.00000000
      0.38700000	     -1.41748314	    469.41692010	    -52.39575058	      0.21888133	     -0.00200000	     -0.18886677	      0.00000000	      0.65341277	      0.00000000	      0.00000000	      0.00000000	      0.00000000	      0.00000000	      0.00000000	      0.00000000	      0.00000000	      0.00000000	      0.00000000
      0.38800000	     -0.98608644	    471.66712582	    -52.52551585	      0.21900045	     -0.00200000	     -0.18894958	      0.00000000	      0.68663329	      0.00000000	      0.00000000	      0.00000000	      0.00000000	      0.00000000	      0.00000000	      0.00000000	      0.00000000	      0.00000000	      0.00000000
      0.38900000	     -0.55869820	    473.99291769	    -52.65001953	      0.21911923	     -0.00200000	     -0.18903573	      0.00000000	      0.72093601	      0.00000000	      0.00000000	      0.00000000	      0.00000000	      0.00000000	      0.00000000	      0.00000000	      0.00000000	      0.00000000	      0.00000000
      0.39000000	     -0.13458477	    476.37879848	    -52.76982486	      0.21923796	     -0.00200000	     -0.18912467	      0.00000000	      0.75612560	      0.00000000	      0.00000000	      0.00000000	      0.00000000	      0.00000000	      0.00000000	      0.00000000	      0.00000000	      0.00000000	      0.00000000
      0.39100000	      0.28536547	    478.83925959	    -52.88313478	      0.21935684	     -0.00200000	     -0.18921724	      0.00000000	      0.79244949	      0.00000000	      0.00000000	      0.00000000	      0.00000000	      0.00000000	      0.00000000	      0.00000000	      0.00000000	      0.00000000	      0.00000000
      0.39200000	      0.70194440	    481.35899007	    -52.99076736	      0.21947604	     -0.00200000	     -0.18931281	      0.00000000	      0.82970164	      0.00000000	      0.00000000	      0.00000000	      0.00000000	      0.00000000	      0.00000000	      0.00000000	      0.00000000	      0.00000000	      0.00000000
      0.39300000	      1.11428276	    483.95216465	    -53.09071317	      0.21959582	     -0.00200000	     -0.18941222	      0.00000000	      0.86814269	      0.00000000	      0.00000000	      0.00000000	      0.00000000	      0.00000000	      0.00000000	      0.00000000	      0.00000000	      0.00000000	      0.00000000
      0.39400000	      1.52322627	    486.60367727	    -53.18404734	      0.21971622	     -0.00200000	     -0.18951477	      0.00000000	      0.90755804	      0.00000000	      0.00000000	      0.00000000	      0.00000000	      0.00000000	      0.00000000	      0.00000000	      0.00000000	      0.00000000	      0.00000000
      0.39500000	      1.92795618	    489.32738602	    -53.26858163	      0.21983760	     -0.00200000	     -0.18962131	      0.00000000	      0.94821992	      0.00000000	      0.00000000	      0.00000000	      0.00000000	      0.00000000	      0.00000000	      0.00000000	      0.00000000	      0.00000000	      0.00000000
      0.39600000	      2.32936116	    492.10831523	    -53.34564596	      0.21995990	     -0.00200000	     -0.18973104	      0.00000000	      0.98990068	      0.00000000	      0.00000000	      0.00000000	      0.00000000	      0.00000000	      0.00000000	      0.00000000	      0.00000000	      0.00000000	      0.00000000
      0.39700000	      2.72669911	    494.96000633	    -53.41288447	      0.22008352	     -0.00200000	     -0.18984476	      0.00000000	      1.03287987	      0.00000000	      0.00000000	      0.00000000	      0.00000000	      0.00000000	      0.00000000	      0.00000000	      0.00000000	      0.00000000	      0.00000000
